Coordinates
version=1
nRows=8
nColumns=36
inDegrees=yes

Units are S.I. units (second, meters, Newtons, ...)
If the header above contains a line with 'inDegrees', this indicates whether rotational values are in degrees (yes) or radians (no).

endheader
time	pelvis_tilt	pelvis_list	pelvis_rotation	pelvis_tx	pelvis_ty	pelvis_tz	hip_flexion_r	hip_adduction_r	hip_rotation_r	knee_angle_r	knee_angle_r_beta	ankle_angle_r	subtalar_angle_r	mtp_angle_r	hip_flexion_l	hip_adduction_l	hip_rotation_l	knee_angle_l	knee_angle_l_beta	ankle_angle_l	subtalar_angle_l	mtp_angle_l	lumbar_extension	lumbar_bending	lumbar_rotation	arm_flex_r	arm_add_r	arm_rot_r	elbow_flex_r	pro_sup_r	arm_flex_l	arm_add_l	arm_rot_l	elbow_flex_l	pro_sup_l
      0.00000000	     12.69415786	     -4.51572105	      0.33457867	      0.44767628	      1.04699126	      0.78621942	     -6.57374393	      7.79298428	      0.51174388	     11.81466047	      0.20620473	      5.18964446	    -11.99244031	     -7.27798333	      4.70955609	     -9.43878624	     -1.67749345	     62.38248982	      1.08877984	     -6.74853785	    -12.16784341	     -7.27798333	    -26.88827038	      5.08355192	      3.43028486	     10.09668522	    -18.57592208	      9.73806075	     36.67482579	     92.61699032	      5.93082512	     -9.28389786	      5.77638264	     23.39049399	     90.09253770
      0.01666670	     13.08824494	     -3.90372856	      0.12067288	      0.44701793	      1.04603733	      0.78817790	     -8.68776299	      7.34810305	      0.23344578	     10.57943083	      0.18464590	      5.38938447	     -9.41748054	     -7.28087693	      5.33692693	     -8.59630187	     -1.58352211	     61.08300753	      1.06609960	     -2.19197382	     -9.32791728	     -7.28087693	    -26.39495207	      4.18520565	      3.55855301	     11.29774352	    -18.97312245	     13.48450899	     35.28602942	     95.97588457	      6.00608123	     -9.70663135	     10.92370608	     22.46308322	     93.73885044
      0.03333330	     13.47085426	     -3.63657381	     -0.51608159	      0.44631965	      1.04637686	      0.78893780	    -10.40284017	      6.90700287	      0.13831147	     10.35831273	      0.18078666	      5.89706203	     -7.99777723	     -7.32309929	      5.16130995	     -7.98337289	     -1.63687769	     58.22784839	      1.01626767	      1.56496983	     -7.97489579	     -7.32309929	    -26.42491676	      3.56128207	      4.77226032	     10.43342917	    -19.71706654	     12.04256055	     37.16179877	    101.90855184	      6.74081062	     -9.86364166	     14.01895486	     21.75649323	     99.26095425
      0.05000000	     13.49895215	     -3.39413229	     -0.64583281	      0.44564787	      1.04753012	      0.78899910	    -11.81434861	      6.60934224	      0.26724816	      9.80980575	      0.17121341	      7.37190369	     -6.93818726	     -7.32945929	      5.64494900	     -7.49178919	     -1.74413423	     55.24554865	      0.96421672	      3.90247851	     -7.51924694	     -7.32945929	    -26.32520897	      3.18392327	      4.81311763	     10.41264260	    -20.20510176	     12.41955142	     37.89546232	    102.05782206	      6.73905675	    -10.02924827	     15.00636483	     21.57165152	     99.41270496
      0.06666670	     13.18739630	     -3.20593748	     -1.01964431	      0.44527568	      1.04784071	      0.78941269	    -12.62921136	      6.32902844	      0.77850849	      9.57242506	      0.16707033	      8.77222473	     -6.47808378	     -7.33985378	      6.47831060	     -6.97492763	     -1.96040315	     51.84099902	      0.90479612	      5.74600376	     -7.36833710	     -7.33985378	    -26.04699689	      2.71575367	      5.30358300	      9.96790540	    -20.50924559	     11.58488055	     38.72292724	    100.80313243	      6.70295453	    -10.02041272	     15.09538411	     21.60265419	     98.52607385
      0.08333330	     12.73635109	     -3.09905538	     -1.25322886	      0.44534077	      1.04684733	      0.78975463	    -13.19968357	      6.17675889	      1.16316459	      9.29651982	      0.16225488	      9.57875811	     -6.41074890	     -7.35166019	      7.64886206	     -6.53119272	     -1.99784350	     48.27456046	      0.84255002	      6.94895476	     -7.26382763	     -7.35166019	    -25.75999662	      2.34894504	      5.88159951	      9.19991759	    -20.73233993	     10.29033360	     39.70422404	     99.80037878	      6.69141818	     -9.98776160	     14.90417877	     21.81513951	     97.90247850
      0.10000000	     12.06755012	     -3.03890095	     -1.35502408	      0.44540098	      1.04511221	      0.78952664	    -13.43876872	      6.09921301	      1.36450425	      9.07679696	      0.15841999	      9.87844523	     -6.58728929	     -7.35221440	      8.99783007	     -6.11585645	     -1.91232215	     44.27888597	      0.77281235	      7.61596471	     -7.22524589	     -7.35221440	    -25.15542663	      2.23923819	      5.90020017	      8.99571608	    -20.86776601	     10.05816232	     40.04961757	     99.74662311	      6.40878343	     -9.97993171	     14.83468622	     21.95228955	     97.89854554
      0.11666670	     11.60335794	     -2.95563339	     -1.51874425	      0.44429099	      1.04316299	      0.78885729	    -13.82827063	      5.98227734	      1.76178820	      8.90372201	      0.15539926	      9.84678749	     -7.08712500	     -7.36363293	      9.88165504	     -5.70472707	     -1.95582676	     39.85592811	      0.69561717	      7.59525481	     -7.50215817	     -7.36363293	    -24.86624865	      2.03899907	      6.47622191	      8.05198242	    -20.85380844	      8.18684747	     41.17927959	     97.59061018	      6.31516477	     -9.80409827	     13.82934943	     22.63513255	     96.56279327
